<svg width="31" height="37" viewBox="0 0 31 37" fill="none" xmlns="http://www.w3.org/2000/svg">
<path d="M26.624 12.0518L3.72243 11.9505" stroke="#6C5FBC" stroke-width="2.08432" stroke-linecap="round" stroke-linejoin="round"/>
<path d="M26.6096 16.6368L21.5162 16.6142C19.4095 16.6049 17.7056 14.5428 17.7133 12.0119C17.7211 9.48095 19.4376 7.43398 21.5443 7.4433L26.6377 7.46582" stroke="#6C5FBC" stroke-width="2.08432" stroke-linecap="round" stroke-linejoin="round"/>
<path d="M11.3611 26.7221L4.70669 26.648C4.16144 26.6456 3.70458 26.1076 3.6942 25.4525L3.64992 23.7254C3.63962 23.0405 4.09991 22.462 4.66994 22.4645L11.25 22.5383L11.3611 26.7221Z" stroke="#6C5FBC" stroke-width="2.08432" stroke-linecap="round" stroke-linejoin="round"/>
<path d="M21.8134 29.2108L12.4076 29.0948C11.8624 29.0924 11.4055 28.5544 11.3951 27.8993L11.2752 22.5242L26.555 22.7108L26.5653 23.3957C26.6421 26.6417 24.5025 29.2525 21.8134 29.2108Z" stroke="#6C5FBC" stroke-width="2.08432" stroke-linecap="round" stroke-linejoin="round"/>
</svg>
